<svg xmlns="http://www.w3.org/2000/svg" viewBox="0 0 290.063 290.063"><path d="M242.669.001a5 5 0 0 0-4.426 2.533l-8.051 13.734a24.76 24.76 0 0 0-7.637-1.205c-13.748 0-25 11.252-25 25 0 7.189 3.081 13.692 7.982 18.264l-32.469 55.385a34.722 34.722 0 0 0-15.514-3.648c-17.393 0-31.896 12.815-34.559 29.48l-35.471-5.602c-.592-13.233-11.599-23.879-24.971-23.879-13.748 0-25 11.252-25 25 0 6.139 2.249 11.776 5.957 16.141l-39.889 50.77a5 5 0 1 0 7.864 6.178l39.879-50.756a24.755 24.755 0 0 0 11.189 2.668c10.671 0 19.835-6.781 23.404-16.244l36.906 5.826c2.259 17.119 16.972 30.418 34.689 30.418 19.271 0 35-15.729 35-35 0-10.113-4.336-19.246-11.238-25.646l32.74-55.852a24.77 24.77 0 0 0 8.498 1.498c13.748 0 25-11.252 25-25 0-7.514-3.367-14.276-8.66-18.869L246.87 7.59a5 5 0 0 0-4.201-7.589zm-20.114 25.062c2.371 0 4.596.553 6.58 1.514.436.346.926.618 1.451.803a14.915 14.915 0 0 1 6.969 12.684c0 8.343-6.657 15-15 15-2.572 0-4.982-.636-7.088-1.756a5.004 5.004 0 0 0-1.547-.957c-3.857-2.702-6.365-7.173-6.365-12.287a14.926 14.926 0 0 1 15-15.001zm0 2.5c-6.874 0-12.5 5.626-12.5 12.5a2.5 2.5 0 1 0 5 .07v-.071c0-4.172 3.328-7.5 7.5-7.5a2.5 2.5 0 1 0 .07-5l-.07.001zm-14.134 84.231a5 5 0 0 0-3.283 8.664c19.253 18.379 24.542 46.98 13.137 71.029a61.627 61.627 0 0 1-63.311 34.773c-26.414-3.277-47.713-23.084-52.895-49.191a5.001 5.001 0 0 0-9.841 1.783l.032.162c6.014 30.3 30.815 53.366 61.471 57.17 15.841 1.965 31.418-1.449 44.605-9.049l53.797 61.229a5 5 0 0 0 7.291.235l26.668-26.666a5.001 5.001 0 0 0-.002-7.072c-.054-.053-.108-.106-.164-.157l-60.518-55.234a71.459 71.459 0 0 0 1.902-3.697c13.237-27.912 7.075-61.218-15.27-82.549a4.988 4.988 0 0 0-3.619-1.43zm-145.866 8.269c8.344 0 15 6.657 15 15s-6.657 15-15 15c-3.185 0-6.12-.977-8.537-2.641l-.004-.004a4.986 4.986 0 0 0-1.406-1.107 14.926 14.926 0 0 1-5.053-11.248c0-8.343 6.657-15 15-15zm95 0c5.031 0 9.699 1.472 13.609 4.002a4.994 4.994 0 0 0 1.637 1.154 24.916 24.916 0 0 1 9.754 19.844c0 13.866-11.134 25-25 25a24.918 24.918 0 0 1-24.973-23.914 4.997 4.997 0 0 0-.012-1.686 24.918 24.918 0 0 1 24.985-24.4zm-95 2.5c-6.874 0-12.5 5.626-12.5 12.5a2.5 2.5 0 1 0 5 .07v-.071c0-4.172 3.328-7.5 7.5-7.5a2.5 2.5 0 1 0 .07-5l-.07.001zm95 5c-9.635 0-17.5 7.865-17.5 17.5a2.5 2.5 0 1 0 5 .07v-.071c0-6.933 5.567-12.5 12.5-12.5a2.5 2.5 0 1 0 .07-5l-.07.001zm55.223 34.965a2.501 2.501 0 0 0-2.461 2.535c0 26.407-21.355 47.762-47.762 47.762a2.5 2.5 0 1 0-.07 5h.071c29.109 0 52.762-23.652 52.762-52.762a2.5 2.5 0 0 0-2.465-2.535h-.075zm7.154 45.482l43.756 39.934-18.584 17.27-38.406-43.709a71.534 71.534 0 0 0 13.234-13.495zm47.461 43.317l7.928 7.234-19.195 19.195-7.719-8.785 18.986-17.644z"/></svg>