<svg fill="#F9CD8F"  width="215" height="215" xmlns="http://www.w3.org/2000/svg" viewBox="0 0 552.5 552.4"><path d="M61.2 336.8A227 227 0 0 0 81.5 385L57 415.9a25.36 25.36 0 0 0 1.9 33.6l42.2 42.2a25.25 25.25 0 0 0 33.6 1.9l30.7-24.3a223.1 223.1 0 0 0 50.1 21.2l4.6 39.5a25.3 25.3 0 0 0 25.1 22.4h59.7A25.3 25.3 0 0 0 330 530l4.4-38.1a225.61 225.61 0 0 0 53.7-21.7l29.7 23.5a25.36 25.36 0 0 0 33.6-1.9l42.2-42.2a25.25 25.25 0 0 0 1.9-33.6l-23.1-29.3a220.36 220.36 0 0 0 22.1-52.8l35.6-4.1a25.3 25.3 0 0 0 22.4-25.1V245a25.3 25.3 0 0 0-22.4-25.1l-35.1-4.1a221.72 221.72 0 0 0-21.2-52.2l21.6-27.3a25.36 25.36 0 0 0-1.9-33.6l-42.1-42.1a25.25 25.25 0 0 0-33.6-1.9l-26.5 21a222.54 222.54 0 0 0-54.9-23l-4-34.3A25.3 25.3 0 0 0 307.3 0h-59.7a25.3 25.3 0 0 0-25.1 22.4l-4 34.3a221.63 221.63 0 0 0-56.3 23.8l-27.5-21.8a25.36 25.36 0 0 0-33.6 1.9l-42.2 42.2a25.25 25.25 0 0 0-1.9 33.6l23 29.1a217.54 217.54 0 0 0-20.8 52.7l-36.8 4.2A25.3 25.3 0 0 0 0 247.5v59.7a25.3 25.3 0 0 0 22.4 25.1zm216.3-161.5a98.7 98.7 0 1 1-98.7 98.7 98.84 98.84 0 0 1 98.7-98.7z"/></svg>
