<svg fill="#fff" width="54" height="44" xmlns="http://www.w3.org/2000/svg" viewBox="0 0 512.01 405.22"><path d="M512 137.62a134.14 134.14 0 0 1-7 42.73c-21.75 98.4-209.81 217.44-217.81 222.51a15.47 15.47 0 0 1-8.16 2.36 14.79 14.79 0 0 1-8.2-2.36A1044.39 1044.39 0 0 1 162 322.06a15.27 15.27 0 0 1 19.81-23.24c40.05 34.21 80.51 61.87 97.32 73 56.45-36.82 181.13-130.5 196.42-199.59a109 109 0 0 0 5.79-34.58 107.69 107.69 0 0 0-55.74-94.32C381.68 19 322.9 30.19 290.77 68.93c-5.78 7-17.65 7-23.53 0C235 30.17 176.27 19 132.42 43.28a107.67 107.67 0 0 0-55.86 94.31A106.23 106.23 0 0 0 82 170.7c2.26 10.08 6.6 19.93 12.11 30.16h89.09l30.59-70.31a15.22 15.22 0 0 1 28.8 2.56l22.52 95.22 29.14-47.77a15.19 15.19 0 0 1 13-7.31h55.29a15.24 15.24 0 0 1 15.25 15.24 15.28 15.28 0 0 1-15.25 15.27h-46.71l-43.89 72.09a15.22 15.22 0 0 1-27.83-4.38l-20.58-86.73-16.27 37.46a15.2 15.2 0 0 1-14 9.17h-178a15.26 15.26 0 1 1 0-30.52H60a132.39 132.39 0 0 1-7.34-22 128.63 128.63 0 0 1-6.56-41.22 138.16 138.16 0 0 1 71.61-121C169-11.8 236.75-2.89 279.09 36.89c42.22-39.78 110-48.69 161.28-20.35A138.28 138.28 0 0 1 512 137.62z"/></svg>