<svg fill="#00b9e7" xmlns="http://www.w3.org/2000/svg" width="45" height="45" viewBox="0 0 96 96"><path d="M69.351 0H26.086a7.641 7.641 0 0 0-7.635 7.635v80.168a7.64 7.64 0 0 0 7.635 7.635h43.265a7.64 7.64 0 0 0 7.636-7.635V7.635A7.64 7.64 0 0 0 69.351 0zM40.72 6.973a1.88 1.88 0 0 1 1.885-1.884h10.229a1.88 1.88 0 0 1 1.885 1.884v.051a1.88 1.88 0 0 1-1.885 1.883H42.605a1.88 1.88 0 0 1-1.885-1.883v-.051zm6.999 85.601a4.142 4.142 0 0 1-4.135-4.135c0-2.277 1.857-4.136 4.135-4.136s4.136 1.858 4.136 4.136a4.143 4.143 0 0 1-4.136 4.135zm22.905-12.406c0 .699-.571 1.271-1.272 1.271H26.086a1.276 1.276 0 0 1-1.272-1.271V15.27c0-.699.573-1.272 1.272-1.272h43.265c.701 0 1.272.573 1.272 1.272v64.898z"/><path d="M64.274 57.263h-33.11a1.26 1.26 0 0 0-1.26 1.261v.023c0 .695.564 1.26 1.26 1.26h33.11a1.26 1.26 0 0 0 1.261-1.26v-.023a1.26 1.26 0 0 0-1.261-1.261zm-1.921-30.541a3.181 3.181 0 0 0-3.182 3.182c0 .635.191 1.224.512 1.722l-5.23 6.728a3.149 3.149 0 0 0-1.007-.179c-.718 0-1.374.247-1.907.649l-6.474-4.316c.064-.253.109-.514.109-.787a3.181 3.181 0 1 0-6.363 0c0 .569.161 1.096.424 1.558l-4.964 5.674a3.17 3.17 0 0 0-1.187-.233 3.182 3.182 0 1 0 3.182 3.181c0-.569-.161-1.096-.424-1.558l4.964-5.674c.368.148.766.233 1.186.233.719 0 1.375-.247 1.907-.648l6.475 4.316a3.14 3.14 0 0 0-.108.787 3.182 3.182 0 1 0 6.364 0c0-.636-.193-1.225-.514-1.722l5.232-6.728c.318.107.652.178 1.006.178a3.181 3.181 0 1 0-.001-6.363zm1.921 45.811h-33.11a1.26 1.26 0 0 0-1.26 1.26v.025c0 .695.564 1.26 1.26 1.26h33.11a1.26 1.26 0 0 0 1.261-1.26v-.025a1.261 1.261 0 0 0-1.261-1.26zm0-7.635h-33.11a1.26 1.26 0 0 0-1.26 1.26v.024a1.26 1.26 0 0 0 1.26 1.261h33.11a1.26 1.26 0 0 0 1.261-1.261v-.024a1.261 1.261 0 0 0-1.261-1.26z"/></svg>