<svg fill="#00b9e7" width="58" height="58" viewBox="0 0 512 512" xmlns="http://www.w3.org/2000/svg"><path d="M259.09 117.878c-19.556 0-35.462 15.905-35.462 35.46 0 6.525 1.827 12.94 5.289 18.551 6.522 10.588 17.798 16.903 30.163 16.903a35.475 35.475 0 0 0 31.193-18.572c2.797-5.15 4.262-10.987 4.262-16.882 0-19.555-15.907-35.46-35.445-35.46z"/><path d="M393.926 299.822c-7.279-10.236-15.117-19.549-23.339-27.722 3.917-18.457 5.9-37.282 5.9-55.99 0-88.83-43.906-171.33-114.571-215.3a5.4 5.4 0 0 0-5.692 0c-70.675 43.975-114.576 126.475-114.576 215.3 0 18.168 1.861 36.426 5.525 54.315-8.208 8.18-16.045 17.485-23.324 27.727a5.395 5.395 0 0 0-.764 4.672l39.864 131.42a5.314 5.314 0 0 0 4.082 3.695 5.381 5.381 0 0 0 5.202-1.836c11.299-13.607 27.023-24.269 44.828-30.501v8.159a5.367 5.367 0 0 0 5.375 5.376h72.906a5.365 5.365 0 0 0 5.376-5.376v-6.489c17.801 6.226 33.528 16.908 44.835 30.511a5.403 5.403 0 0 0 4.143 1.931c.34 0 .709-.031 1.055-.109a5.4 5.4 0 0 0 4.09-3.712l39.847-131.425a5.369 5.369 0 0 0-.762-4.646zM299.72 175.343a46.215 46.215 0 0 1-40.646 24.194c-16.126 0-30.819-8.23-39.315-22.005-4.507-7.312-6.888-15.68-6.888-24.194 0-25.481 20.728-46.211 46.219-46.211 25.47 0 46.206 20.73 46.206 46.211a46.48 46.48 0 0 1-5.576 22.005zm14.793 180.978a5.368 5.368 0 0 1-7.106 2.698 5.374 5.374 0 0 1-2.698-7.106c39.107-86.962 33.396-164.302 33.332-165.079a5.374 5.374 0 0 1 4.932-5.79c3.08-.247 5.547 1.968 5.789 4.924.261 3.254 5.983 80.894-34.249 170.353z"/><path d="M225.967 431.572a5.375 5.375 0 0 0-5.375 5.375v42.678a5.369 5.369 0 0 0 5.375 5.376 5.367 5.367 0 0 0 5.375-5.376v-42.678a5.377 5.377 0 0 0-5.375-5.375zm32.919 0a5.372 5.372 0 0 0-5.375 5.375v75.451a5.373 5.373 0 0 0 5.375 5.375 5.373 5.373 0 0 0 5.375-5.375v-75.451a5.367 5.367 0 0 0-5.375-5.375zm31.49 0a5.375 5.375 0 0 0-5.375 5.375v42.678a5.369 5.369 0 0 0 5.375 5.376 5.363 5.363 0 0 0 5.376-5.376v-42.678a5.369 5.369 0 0 0-5.376-5.375z"/></svg>